<svg width="40" height="40" viewBox="0 0 40 40" fill="none" xmlns="http://www.w3.org/2000/svg">
<path fill-rule="evenodd" clip-rule="evenodd" d="M40 20C40 31.0457 31.0457 40 20 40C8.9543 40 0 31.0457 0 20C0 8.95428 8.9543 0 20 0C31.0457 0 40 8.95428 40 20ZM20 7.5C20.8284 7.5 21.5 8.17157 21.5 9V18.5H31C31.8284 18.5 32.5 19.1716 32.5 20C32.5 20.8284 31.8284 21.5 31 21.5H21.5V31C21.5 31.8284 20.8284 32.5 20 32.5C19.1716 32.5 18.5 31.8284 18.5 31V21.5H9C8.17157 21.5 7.5 20.8284 7.5 20C7.5 19.1716 8.17157 18.5 9 18.5H18.5V9C18.5 8.17157 19.1716 7.5 20 7.5Z" fill="#FAF9F9"/>
</svg>
