<svg width="31" height="60" viewBox="0 0 31 60" fill="none" xmlns="http://www.w3.org/2000/svg">
<path d="M0.121338 60C8.07783 60 15.7085 56.8393 21.3345 51.2132C26.9606 45.5871 30.1213 37.9565 30.1213 30C30.1213 22.0435 26.9606 14.4129 21.3345 8.7868C15.7085 3.16071 8.07784 1.54919e-06 0.121346 0L0.12134 30L0.121338 60Z" fill="url(#paint0_linear_63_1083)"/>
<path fill-rule="evenodd" clip-rule="evenodd" d="M10.2531 40.5668C9.66727 39.981 9.66727 39.0312 10.2531 38.4455L18.3848 30.3137L10.2531 22.182C9.66727 21.5962 9.66727 20.6465 10.2531 20.0607C10.8388 19.4749 11.7886 19.4749 12.3744 20.0607L22.6274 30.3137L12.3744 40.5668C11.7886 41.1526 10.8388 41.1526 10.2531 40.5668Z" fill="#281852"/>
<defs>
<linearGradient id="paint0_linear_63_1083" x1="-29.8787" y1="0" x2="30.1213" y2="60" gradientUnits="userSpaceOnUse">
<stop stop-color="#FF6D00"/>
<stop offset="1" stop-color="#FF9E00"/>
</linearGradient>
</defs>
</svg>
