<svg width="72" height="72" viewBox="0 0 72 72" fill="none" xmlns="http://www.w3.org/2000/svg">
<path d="M14.9209 0.921021H56.9209C64.6529 0.921021 70.9209 7.18903 70.9209 14.921V48.521L61.1209 59.721L50.8542 70.921H14.9209C7.18891 70.921 0.920898 64.653 0.920898 56.921V14.921C0.920898 7.18903 7.18891 0.921021 14.9209 0.921021Z" fill="url(#paint0_linear_21_2226)"/>
<path d="M70.9209 48.521V14.921C70.9209 7.18903 64.6529 0.921021 56.9209 0.921021H14.9209C7.18891 0.921021 0.920898 7.18903 0.920898 14.921V56.921C0.920898 64.653 7.18891 70.921 14.9209 70.921H50.8542M70.9209 48.521H64.8542C57.1222 48.521 50.8542 54.789 50.8542 62.521V70.921M70.9209 48.521L61.1209 59.721L50.8542 70.921" stroke="#281852" stroke-linejoin="round"/>
<path d="M52.5703 21.9609C52.1172 22.2891 51.5859 22.5391 50.9766 22.7109C50.3828 22.8672 49.5781 22.9453 48.5625 22.9453C47.5625 22.9453 46.2578 22.875 44.6484 22.7344C44.2734 23.75 43.8906 24.9375 43.5 26.2969L40.8047 35.4844C37.4766 46.4844 33.9297 52.6562 30.1641 54C29.8984 54.1094 29.5547 54.1641 29.1328 54.1641C28.7266 54.1641 28.3906 54.1094 28.125 54C27.875 53.9062 27.6641 53.7812 27.4922 53.625C27.1484 53.3438 26.9766 53.0625 26.9766 52.7812C26.9766 52.5 27.0469 52.3125 27.1875 52.2188L27.7969 51.8438C30.0469 50.375 32.1094 46.4688 33.9844 40.125L35.6719 34.4062C37.1875 29.2656 38.6016 25.2266 39.9141 22.2891C38.6797 22.1797 37.7422 22.125 37.1016 22.125C35.2578 22.125 33.9297 22.3828 33.1172 22.8984C32.3203 23.4141 31.7578 23.9766 31.4297 24.5859C31.1172 25.1797 30.9531 25.5938 30.9375 25.8281C30.8906 26.2656 30.75 26.5469 30.5156 26.6719C30.2812 26.7812 29.9922 26.8359 29.6484 26.8359C29.3203 26.8359 28.9766 26.7188 28.6172 26.4844C28.2578 26.2344 27.9609 25.9219 27.7266 25.5469C27.2266 24.7812 27.0312 23.9219 27.1406 22.9688C27.25 22 27.5625 21.1719 28.0781 20.4844C28.6094 19.7812 29.2344 19.2109 29.9531 18.7734C31.2812 17.9609 32.6797 17.5547 34.1484 17.5547C35.6328 17.5547 37.0312 17.6328 38.3438 17.7891C39.6719 17.9297 40.9922 18.0938 42.3047 18.2812C45.7891 18.75 48.0078 18.9844 48.9609 18.9844C49.9141 18.9844 50.6172 18.9297 51.0703 18.8203C51.5391 18.7109 51.9375 18.5469 52.2656 18.3281C52.5938 18.1094 52.8203 17.9688 52.9453 17.9062C53.0859 17.8281 53.3047 17.7891 53.6016 17.7891C54.0703 17.7891 54.2734 18.1484 54.2109 18.8672C54.1484 19.5703 53.9766 20.1797 53.6953 20.6953C53.4141 21.1953 53.0391 21.6172 52.5703 21.9609Z" fill="#281852"/>
<defs>
<linearGradient id="paint0_linear_21_2226" x1="0.920898" y1="0.921021" x2="70.9209" y2="70.921" gradientUnits="userSpaceOnUse">
<stop stop-color="#FF9E00"/>
<stop offset="1" stop-color="#FF6D00"/>
</linearGradient>
</defs>
</svg>
