<svg width="79" height="79" viewBox="0 0 79 79" fill="none" xmlns="http://www.w3.org/2000/svg">
<g filter="url(#filter0_d_21_1628)">
<path d="M18.9211 0.921051H60C67.732 0.921051 74 7.18906 74 14.9211V47.8947L64.3289 58.9474L54.1974 70H18.921C11.1891 70 4.92105 63.732 4.92105 56V14.9211C4.92105 7.18907 11.1891 0.921051 18.9211 0.921051Z" fill="url(#paint0_linear_21_1628)"/>
<path d="M74 47.8947V14.9211C74 7.18906 67.732 0.921051 60 0.921051H18.9211C11.1891 0.921051 4.92105 7.18907 4.92105 14.9211V56C4.92105 63.732 11.1891 70 18.921 70H54.1974M74 47.8947H68.1974C60.4654 47.8947 54.1974 54.1627 54.1974 61.8947V70M74 47.8947L64.3289 58.9474L54.1974 70" stroke="#281852" stroke-linejoin="round"/>
</g>
<path d="M56.5703 21.9609C56.1172 22.2891 55.5859 22.5391 54.9766 22.7109C54.3828 22.8672 53.5781 22.9453 52.5625 22.9453C51.5625 22.9453 50.2578 22.875 48.6484 22.7344C48.2734 23.75 47.8906 24.9375 47.5 26.2969L44.8047 35.4844C41.4766 46.4844 37.9297 52.6562 34.1641 54C33.8984 54.1094 33.5547 54.1641 33.1328 54.1641C32.7266 54.1641 32.3906 54.1094 32.125 54C31.875 53.9062 31.6641 53.7812 31.4922 53.625C31.1484 53.3438 30.9766 53.0625 30.9766 52.7812C30.9766 52.5 31.0469 52.3125 31.1875 52.2188L31.7969 51.8438C34.0469 50.375 36.1094 46.4688 37.9844 40.125L39.6719 34.4062C41.1875 29.2656 42.6016 25.2266 43.9141 22.2891C42.6797 22.1797 41.7422 22.125 41.1016 22.125C39.2578 22.125 37.9297 22.3828 37.1172 22.8984C36.3203 23.4141 35.7578 23.9766 35.4297 24.5859C35.1172 25.1797 34.9531 25.5938 34.9375 25.8281C34.8906 26.2656 34.75 26.5469 34.5156 26.6719C34.2812 26.7812 33.9922 26.8359 33.6484 26.8359C33.3203 26.8359 32.9766 26.7188 32.6172 26.4844C32.2578 26.2344 31.9609 25.9219 31.7266 25.5469C31.2266 24.7812 31.0312 23.9219 31.1406 22.9688C31.25 22 31.5625 21.1719 32.0781 20.4844C32.6094 19.7812 33.2344 19.2109 33.9531 18.7734C35.2812 17.9609 36.6797 17.5547 38.1484 17.5547C39.6328 17.5547 41.0312 17.6328 42.3438 17.7891C43.6719 17.9297 44.9922 18.0938 46.3047 18.2812C49.7891 18.75 52.0078 18.9844 52.9609 18.9844C53.9141 18.9844 54.6172 18.9297 55.0703 18.8203C55.5391 18.7109 55.9375 18.5469 56.2656 18.3281C56.5938 18.1094 56.8203 17.9688 56.9453 17.9062C57.0859 17.8281 57.3047 17.7891 57.6016 17.7891C58.0703 17.7891 58.2734 18.1484 58.2109 18.8672C58.1484 19.5703 57.9766 20.1797 57.6953 20.6953C57.4141 21.1953 57.0391 21.6172 56.5703 21.9609Z" fill="#281852"/>
<defs>
<filter id="filter0_d_21_1628" x="0.421053" y="0.421051" width="78.0789" height="78.0789" filterUnits="userSpaceOnUse" color-interpolation-filters="sRGB">
<feFlood flood-opacity="0" result="BackgroundImageFix"/>
<feColorMatrix in="SourceAlpha" type="matrix" values="0 0 0 0 0 0 0 0 0 0 0 0 0 0 0 0 0 0 127 0" result="hardAlpha"/>
<feOffset dy="4"/>
<feGaussianBlur stdDeviation="2"/>
<feComposite in2="hardAlpha" operator="out"/>
<feColorMatrix type="matrix" values="0 0 0 0 0 0 0 0 0 0 0 0 0 0 0 0 0 0 0.25 0"/>
<feBlend mode="normal" in2="BackgroundImageFix" result="effect1_dropShadow_21_1628"/>
<feBlend mode="normal" in="SourceGraphic" in2="effect1_dropShadow_21_1628" result="shape"/>
</filter>
<linearGradient id="paint0_linear_21_1628" x1="4.92105" y1="0.921051" x2="74" y2="70" gradientUnits="userSpaceOnUse">
<stop stop-color="#FF9E00"/>
<stop offset="1" stop-color="#FF6D00"/>
</linearGradient>
</defs>
</svg>
